# xmcd CD database file
#
# Track frame offsets:
#	150
#	36535
#	71265
#	103776
#	122730
#	154363
#	204817
#
# Disc length: 3167 seconds
#
# Revision: 0
# Processed by: cddbd v1.5.1PL2 Copyright (c) Steve Scherf et al.
# Submitted via: CDex 1.40Release
#
DISCID=5d0c5d07
DTITLE=Ernie Williams and the Wildcats - Happy To Be Anywhere [CD1]
DYEAR=1999
DGENRE=Blues
TTITLE0=Can't Shake That Woman
TTITLE1=Hurts Me Too
TTITLE2=We Fit Together
TTITLE3=Terrible Thing
TTITLE4=Harvest Time
TTITLE5=Sister
TTITLE6=Watch Yourself
EXTD=YEAR: 1999 ID3G: 0
EXTT0=
EXTT1=
EXTT2=
EXTT3=
EXTT4=
EXTT5=
EXTT6=
PLAYORDER=
